<svg xmlns="http://www.w3.org/2000/svg" width="24" height="24" viewBox="0 0 24 24" fill="none" stroke="currentColor" stroke-width="2" stroke-linecap="round" stroke-linejoin="round"><path d="M23 3a10.9 10.9 0 0 1-3.14 1.53A4.48 4.48 0 0 0 22.43.36a9.09 9.09 0 0 1-2.88 1.1A4.52 4.52 0 0 0 16.11 0c-2.5 0-4.52 2.02-4.52 4.52 0 .35.04.7.11 1.03C7.69 5.4 4.07 3.7 1.64 1.15c-.38.65-.6 1.4-.6 2.2 0 1.52.77 2.86 1.94 3.65A4.48 4.48 0 0 1 .96 6.1v.06c0 2.13 1.52 3.91 3.54 4.31-.37.1-.76.16-1.16.16-.28 0-.55-.03-.81-.08.55 1.72 2.16 2.97 4.07 3A9.05 9.05 0 0 1 0 19.54a12.8 12.8 0 0 0 6.92 2.03c8.3 0 12.84-6.87 12.84-12.84 0-.2 0-.39-.01-.58A9.22 9.22 0 0 0 23 3z"/></svg>